<?xml version="1.0" encoding="utf-8"?>
<!-- Generator: Adobe Illustrator 18.1.1, SVG Export Plug-In . SVG Version: 6.00 Build 0)  -->
<svg version="1.1" id="Layer_1" xmlns="http://www.w3.org/2000/svg" xmlns:xlink="http://www.w3.org/1999/xlink" x="0px" y="0px"
	 width="89.8px" height="88.4px" viewBox="25.3 -14.5 89.8 88.4" enable-background="new 25.3 -14.5 89.8 88.4"
	 xml:space="preserve">
<g>
	<path d="M72.3,52.2c0.2,1.1,1.1,1.4,1.9,0.7l5.9-4.9c0.8-0.7,0.8-1.7-0.2-2.3l-6.6-4.1c8.3-3.1,20.2-17.2,20.2-31
		c0-13.8-10.4-25-23.3-25C57.5-14.5,47-3.3,47,10.5C47,25,60.5,40.2,68.8,42c-2.5,6.4-5.3,18.5,2.3,31c0.3,0.5,0.8,0.7,1.3,0.7
		c0.3,0,0.5-0.1,0.8-0.2c0.7-0.4,0.9-1.3,0.5-2.1c-6.1-10.2-4.7-20.3-2.7-26.4L72.3,52.2z"/>
	<path d="M61.4,71.6c-9-5.7-12.5-13.9-13.9-20.2c4.1-1.9,8.9-6.8,12-12.7c-7.3-6.3-14.2-17.3-14.2-28.2c0-1.3,0.1-2.5,0.2-3.7
		c-0.5,0-1-0.1-1.5-0.1c-10.3,0-18.7,9-18.7,20.1c0,11.7,10.8,23.9,17.5,25.3l-4.5,2.6c-1,0.5-1,1.5-0.1,2.2l4.2,3.2
		c0.9,0.7,1.8,0.3,2-0.7l1.2-5.5c1.8,6.5,5.8,14.3,14.5,19.8c0.2,0.1,0.4,0.2,0.7,0.2c0.4,0,0.8-0.2,1.1-0.6
		C62.1,72.7,62,71.9,61.4,71.6z"/>
	<path d="M115,26.8c0-11.1-8.3-20.1-18.6-20.1c-0.4,0-0.9,0-1.3,0.1c0.2,1.2,0.2,2.4,0.2,3.7c0,7.4-3.3,15.7-9,22.8
		c-1.7,2.1-3.5,3.9-5.3,5.5C84.2,44.6,89,49.4,93,51.3c-1.4,6.3-4.9,14.6-13.9,20.2c-0.6,0.4-0.8,1.1-0.4,1.7
		c0.2,0.4,0.6,0.6,1.1,0.6c0.2,0,0.5-0.1,0.7-0.2c8.7-5.5,12.6-13.3,14.4-19.8l1.1,5.4c0.2,1.1,1.1,1.4,2,0.7l4.2-3.2
		c0.9-0.7,0.8-1.7-0.1-2.2l-4.5-2.6C104.3,50.7,115,38.5,115,26.8z"/>
</g>
</svg>
