<?xml version="1.0" encoding="utf-8"?>
<!-- Generator: Adobe Illustrator 18.1.1, SVG Export Plug-In . SVG Version: 6.00 Build 0)  -->
<svg version="1.1" id="Layer_1" xmlns="http://www.w3.org/2000/svg" xmlns:xlink="http://www.w3.org/1999/xlink" x="0px" y="0px"
	 width="115px" height="115px" viewBox="-176.8 114.8 115 115" enable-background="new -176.8 114.8 115 115" xml:space="preserve">
<path d="M-75.9,163.5h-9.9c0.7,2.8,1.1,5.7,1.1,8.7c0,19.2-15.6,34.8-34.8,34.8s-34.8-15.6-34.8-34.8c0-3,0.4-5.9,1.1-8.7h-9.9v47.9
	c0,2.4,2,4.3,4.4,4.3h78.4c2.4,0,4.4-1.9,4.4-4.3V163.5z M-75.9,133c0-2.4-2-4.4-4.4-4.4h-13c-2.4,0-4.4,2-4.4,4.4v13.1
	c0,2.4,1.9,4.4,4.4,4.4h13.1c2.4,0,4.4-2,4.4-4.4V133H-75.9z M-119.4,150.4c-12,0-21.8,9.7-21.8,21.8c0,12,9.7,21.8,21.8,21.8
	c12.1,0,21.8-9.7,21.8-21.8C-97.6,160.2-107.4,150.4-119.4,150.4 M-75.9,228.8h-87c-7.2,0-13.1-5.8-13.1-13.1v-87
	c0-7.3,5.8-13.1,13.1-13.1h87.1c7.2,0,13.1,5.8,13.1,13.1v87.1C-62.8,222.9-68.7,228.8-75.9,228.8"/>
</svg>
