<?xml version="1.0" encoding="utf-8"?>
<!-- Generator: Adobe Illustrator 18.1.1, SVG Export Plug-In . SVG Version: 6.00 Build 0)  -->
<svg version="1.1" id="Layer_1" xmlns="http://www.w3.org/2000/svg" xmlns:xlink="http://www.w3.org/1999/xlink" x="0px" y="0px"
	 width="45.4px" height="53.3px" viewBox="-154.7 129.8 45.4 53.3" enable-background="new -154.7 129.8 45.4 53.3"
	 xml:space="preserve">
<g>
	<path d="M-137.6,178.1h11.2c0.7-0.8,1.5-1.7,2.2-2.7h-15.6C-139.2,176.3-138.4,177.2-137.6,178.1z"/>
	<path d="M-134.8,158.4c0,1.3-0.1,2.6-0.3,3.8h6.2c-0.2-1.2-0.3-2.5-0.3-3.8H-134.8z"/>
	<path d="M-126,169.9h-12c-0.5,0.8-1.1,1.7-1.8,2.5c-0.1,0.2-0.5,0.6-0.7,0.9h17.1c-0.2-0.3-0.4-0.5-0.5-0.7
		C-124.8,171.8-125.5,170.9-126,169.9z"/>
	<path d="M-131.9,183.1c0,0,1.7-1.2,4-3.5h-8.3C-134.9,180.9-133.5,182-131.9,183.1z"/>
	<path d="M-136.9,167.9h9.7c-0.5-1.2-1-2.4-1.3-3.6h-7.1C-135.9,165.5-136.3,166.7-136.9,167.9z"/>
	<path d="M-136.9,148.8l0.5-0.1l0.1,0.4c0.8,2.5,1.2,4.9,1.4,7.2h5.8c0.2-2.2,0.7-4.5,1.4-6.9l0.1-0.4l0.5,0.1
		c0.1,0,2.6,0.6,5.7,2.1c-1.5-1.9-3.6-3.4-5.9-4.2c2.4-1.5,4-4.2,4-7.2c0-2.3-0.9-4.4-2.5-6l3-3c0.2-0.2,0.2-0.5,0-0.7
		c-0.2-0.2-0.5-0.2-0.7,0l-3.1,3.1c-1.5-1.2-3.3-1.8-5.3-1.8c-2.1,0-4.1,0.8-5.6,2.1l-3.2-3.2c-0.2-0.2-0.5-0.2-0.7,0
		c-0.2,0.2-0.2,0.5,0,0.7l3.2,3.2c-1.4,1.5-2.2,3.5-2.2,5.7c0,3,1.6,5.6,3.9,7.1c-2.2,0.8-4.1,2.1-5.7,3.7
		C-139.1,149.3-136.9,148.8-136.9,148.8z"/>
	<path d="M-137.1,149.9c-2.5,0.7-14.3,4.3-17.3,15.2l-0.1,0.5c0,0.1-0.1,0.2-0.1,0.3l0,0.2c-0.7,4.2,2.2,8.1,6.3,8.8
		c2.5,0.4,5-0.4,6.8-2.2c0.1-0.1,0.6-0.7,0.8-1C-135.7,165.9-134.5,158.6-137.1,149.9z"/>
	<path d="M-109.3,166.3l0-0.3l0,0c0-0.1,0-0.1,0-0.2l-0.1-0.4c-3-10.9-14.8-14.6-17.3-15.2c-2.6,8.7-1.4,16,3.5,21.8
		c0.2,0.3,0.7,0.9,0.8,1c1.8,1.8,4.3,2.6,6.8,2.2C-111.5,174.4-108.7,170.5-109.3,166.3z"/>
</g>
</svg>
