<?xml version="1.0" encoding="utf-8"?>
<!-- Generator: Adobe Illustrator 18.1.1, SVG Export Plug-In . SVG Version: 6.00 Build 0)  -->
<svg version="1.1" id="Layer_1" xmlns:sketch="http://www.bohemiancoding.com/sketch/ns"
	 xmlns="http://www.w3.org/2000/svg" xmlns:xlink="http://www.w3.org/1999/xlink" x="0px" y="0px" width="76.3px" height="62.2px"
	 viewBox="43.2 -11.3 76.3 62.2" enable-background="new 43.2 -11.3 76.3 62.2" xml:space="preserve">
<path d="M56.9-6.4l-9.8,7.9v49.4h19.7V1.4L56.9-6.4z M53.8,42.9h-4.4v-4.8h4.4V42.9z M53.8,37.7h-4.4v-3.4h4.4V37.7z M53.8,30h-4.4
	v-4.8h4.4V30z M53.8,24.8h-4.4v-3.4h4.4V24.8z M53.8,17.1h-4.4v-4.8h4.4V17.1z M53.8,11.9h-4.4V8.4h4.4V11.9z M59.2,42.9h-4.4v-4.8
	h4.4V42.9z M59.2,37.7h-4.4v-3.4h4.4V37.7z M59.2,30h-4.4v-4.8h4.4V30z M59.2,24.8h-4.4v-3.4h4.4V24.8z M59.2,17.1h-4.4v-4.8h4.4
	V17.1z M59.2,11.9h-4.4V8.4h4.4V11.9z M64.6,42.9h-4.4v-4.8h4.4V42.9z M64.6,37.7h-4.4v-3.4h4.4V37.7z M64.6,30h-4.4v-4.8h4.4V30z
	 M64.6,24.8h-4.4v-3.4h4.4V24.8z M64.6,17.1h-4.4v-4.8h4.4V17.1z M64.6,11.9h-4.4V8.4h4.4V11.9z"/>
<polygon points="66.9,-0.1 70.8,-0.1 56.9,-11.3 43.2,-0.1 47.1,-0.1 56.9,-8.2 "/>
<path d="M68.5,1.3v49.6h7.2V40.7h11.3v10.2h7.4V1.3H68.5z M79.9,35.1h-6.7v-9.6c0,0,1-2.3,3.3-2.3c2.3,0,3.3,2.3,3.3,2.3V35.1z
	 M79.9,20.1h-6.7v-9.6c0,0,1-2.3,3.3-2.3c2.3,0,3.3,2.3,3.3,2.3V20.1z M89.7,35.3h-6.7v-9.6c0,0,1-2.3,3.3-2.3
	c2.3,0,3.3,2.3,3.3,2.3V35.3z M89.7,20.2h-6.7v-9.6c0,0,1-2.3,3.3-2.3c2.3,0,3.3,2.3,3.3,2.3V20.2z"/>
<rect x="81.2" y="40.7" width="0.6" height="10.2"/>
<path d="M105.7-6.4l-9.8,7.9v49.4h19.7V1.4L105.7-6.4z M102.5,42.9h-4.4v-4.8h4.4V42.9z M102.5,37.7h-4.4v-3.4h4.4V37.7z M102.5,30
	h-4.4v-4.8h4.4V30z M102.5,24.8h-4.4v-3.4h4.4V24.8z M102.5,17.1h-4.4v-4.8h4.4V17.1z M102.5,11.9h-4.4V8.4h4.4V11.9z M107.8,42.9
	h-4.4v-4.8h4.4V42.9z M107.8,37.7h-4.4v-3.4h4.4V37.7z M107.8,30h-4.4v-4.8h4.4V30z M107.8,24.8h-4.4v-3.4h4.4V24.8z M107.8,17.1
	h-4.4v-4.8h4.4V17.1z M107.8,11.9h-4.4V8.4h4.4V11.9z M113.3,42.9h-4.4v-4.8h4.4V42.9z M113.3,37.7h-4.4v-3.4h4.4V37.7z M113.3,30
	h-4.4v-4.8h4.4V30z M113.3,24.8h-4.4v-3.4h4.4V24.8z M113.3,17.1h-4.4v-4.8h4.4V17.1z M113.3,11.9h-4.4V8.4h4.4V11.9z"/>
<polygon points="115.6,-0.1 119.5,-0.1 105.7,-11.3 91.8,-0.1 95.7,-0.1 105.7,-8.2 "/>
</svg>
