<?xml version="1.0" encoding="utf-8"?>
<!-- Generator: Adobe Illustrator 18.1.1, SVG Export Plug-In . SVG Version: 6.00 Build 0)  -->
<svg version="1.1" id="Layer_1" xmlns="http://www.w3.org/2000/svg" xmlns:xlink="http://www.w3.org/1999/xlink" x="0px" y="0px"
	 width="73.8px" height="66.2px" viewBox="-311.5 241.2 73.8 66.2" enable-background="new -311.5 241.2 73.8 66.2"
	 xml:space="preserve">
<path d="M-241.3,268.3h-7.3l0,0v-13.7h-6v-2.2c0,0,0.2-3.3-0.8-5.4c-2.7-5.8-24.8-5.8-24.8-5.8h-0.1c0,0-22.1,0-24.8,5.8
	c-1,2.2-0.8,5.4-0.8,5.4v2.2h-5.6v13.7h5.6v9.9h-3.1v26.8c0,1.3,1,2.3,2.3,2.3h4.2c1.3,0,2.3-1,2.3-2.3v-8.2h40v8.2
	c0,1.3,1,2.3,2.3,2.3h4.2c1.3,0,2.3-1,2.3-2.3l0-26.8h-3.2v-2.7h2.9l3.1,5.4h7.3l3.6-6.3L-241.3,268.3z M-259.6,248.1
	c1,0,1.7,0.8,1.7,1.7s-0.8,1.7-1.7,1.7c-1,0-1.7-0.8-1.7-1.7S-260.5,248.1-259.6,248.1z M-265,248.1c1,0,1.7,0.8,1.7,1.7
	s-0.8,1.7-1.7,1.7c-1,0-1.7-0.8-1.7-1.7S-265.9,248.1-265,248.1z M-257.2,254.6v12.9h-22.2v-12.9h9.5l-8.6,7.6l1.2,1.3l10.1-9
	H-257.2z M-287.8,245.8h7.5h7.6c1.6,0,2.8,1.3,2.8,2.8c0,1.6-1.3,2.8-2.8,2.8h-7.6h-7.5c-1.6,0-2.8-1.3-2.8-2.8
	C-290.7,247.1-289.4,245.8-287.8,245.8z M-295.4,248.1c1,0,1.7,0.8,1.7,1.7s-0.8,1.7-1.7,1.7s-1.7-0.8-1.7-1.7
	S-296.3,248.1-295.4,248.1z M-300.7,248.1c1,0,1.7,0.8,1.7,1.7s-0.8,1.7-1.7,1.7c-1,0-1.7-0.8-1.7-1.7S-301.7,248.1-300.7,248.1z
	 M-303.2,254.6h9.7l10.1,9l1.2-1.3l-8.6-7.6h9.5v12.9h-22V254.6z M-296.6,286.8h-7.7v-4h7.7V286.8z M-267.6,287.1h-24.9v-2.6h24.9
	V287.1z M-267.6,282.9h-24.9v-2.6h24.9V282.9z M-267.6,278.6h-24.9V276h24.9V278.6z M-256,286.8h-7.7v-4h7.7V286.8z M-251.8,273.7
	h-2.9v-4.9v-0.4h6L-251.8,273.7z"/>
</svg>
