<?xml version="1.0" encoding="utf-8"?>
<!-- Generator: Adobe Illustrator 18.1.1, SVG Export Plug-In . SVG Version: 6.00 Build 0)  -->
<svg version="1.1" id="Layer_1" xmlns="http://www.w3.org/2000/svg" xmlns:xlink="http://www.w3.org/1999/xlink" x="0px" y="0px" viewBox="34.3 -18.7 74.1 68.4" enable-background="new 34.3 -18.7 74.1 68.4" xml:space="preserve">
<path d="M74.9-18.7c-0.1,0-0.1,0-0.2,0c-2,0-3.3,1.6-3.3,3.6c0,1.9,0.8,3.5,3.7,3.6v0c14.1,0.2,26.4,12.2,26.4,27
	c0,14.9-12.2,27.1-27.1,27.1c-14.2,0-26-10.7-27-24.8h6.3L43.9,1.7l-9.7,16.1h5.9c1,17.8,15.9,31.9,34,31.9
	c18.8,0,34.1-15.4,34.1-34.2C108.3-3.1,93.4-18.3,74.9-18.7z"/>
<path d="M78-2.1c0-1.7-1.3-3.1-3-3.1h-0.7c-1.7,0-3,1.4-3,3.1v17.9l-8.8,8.8c-1.3,1.3-1.2,3.4,0,4.7
	c1.2,1.3,3.4,1.3,4.7,0l9.7-9.7c0.1-0.1,0.1-0.2,0.2-0.2c0.5-0.6,0.9-1.3,0.9-2.1L78-2.1L78-2.1z"/>
</svg>
