<?xml version="1.0" encoding="utf-8"?>
<!-- Generator: Adobe Illustrator 18.1.1, SVG Export Plug-In . SVG Version: 6.00 Build 0)  -->
<svg version="1.1" id="Layer_1" xmlns="http://www.w3.org/2000/svg" xmlns:xlink="http://www.w3.org/1999/xlink" x="0px" y="0px"
	 width="37.4px" height="74.1px" viewBox="-148.8 119.4 37.4 74.1" enable-background="new -148.8 119.4 37.4 74.1"
	 xml:space="preserve">
<path d="M-111.4,120.7c0-0.4-0.1-0.8-0.3-1.3c-6.7,1.5-11.6,4.4-14.5,8.6c-2.9,4.2-4.4,9.1-4.5,14.8c2.7-0.2,4.7-0.5,6-1
	c2.1-0.7,4.2-2.1,6.3-4.2c2.4-2.4,4.2-5.1,5.4-7.9c1.1-2.9,1.7-5.5,1.7-7.9C-111.4,121.5-111.4,121.1-111.4,120.7z"/>
<path d="M-138.6,177.5c0-2.8-0.9-5.4-2.5-7.5c-1.5-2.1-1.5-3.1,0-5.2c1.5-2.1,2.4-4.7,2.4-7.5c0-6.1-4.2-11.1-9.9-12.4
	c1.5-0.5,3-0.8,4.7-0.8c1.9,0,3.8,0.5,6.8,1.2c3,0.7,7.4,0.8,10.7,0c3.3-0.8,4.9-1.2,6.8-1.2c1.7,0,3.2,0.3,4.7,0.8
	c-5.7,1.3-9.9,6.3-9.9,12.4c0,2.8,0.9,5.4,2.4,7.5c1.5,2.1,1.5,3.1,0,5.2c-1.5,2.1-2.4,4.7-2.4,7.5c0,6.2,4.4,11.3,10.2,12.5
	c-2.3,2.4-4.6,3.5-6.9,3.5c-1.3,0-3-0.4-5.1-1.3c-3.3-1.3-7.8-1-10.2,0c-1.5,0.6-3.8,1.3-5.1,1.3c-2.3,0-4.6-1.2-6.9-3.5
	C-143,188.8-138.6,183.6-138.6,177.5z"/>
</svg>
