<?xml version="1.0" encoding="utf-8"?>
<!-- Generator: Adobe Illustrator 18.1.1, SVG Export Plug-In . SVG Version: 6.00 Build 0)  -->
<svg version="1.1" id="Layer_1" xmlns="http://www.w3.org/2000/svg" xmlns:xlink="http://www.w3.org/1999/xlink" x="0px" y="0px"
	 width="268px" height="268px" viewBox="-100.6 37.6 268 268" enable-background="new -100.6 37.6 268 268" xml:space="preserve">
<path d="M152.2,38.1H-85.3c-8.1,0-14.7,6.6-14.7,14.7v237.4c0,8.1,6.6,14.7,14.7,14.7H42.5V201.6H7.7v-40.3h34.8v-29.6
	c0-34.5,21.1-53.2,51.8-53.2c14.7,0,27.4,1.1,31.1,1.6v36h-21.3c-16.7,0-20,7.9-20,19.6v25.7H124l-5.2,40.3H84.1v103.4h68
	c8.1,0,14.7-6.6,14.7-14.7V52.8C166.9,44.7,160.3,38.1,152.2,38.1z"/>
</svg>
