<?xml version="1.0" encoding="utf-8"?>
<!-- Generator: Adobe Illustrator 18.1.1, SVG Export Plug-In . SVG Version: 6.00 Build 0)  -->
<svg version="1.1" id="Layer_1" xmlns="http://www.w3.org/2000/svg" xmlns:xlink="http://www.w3.org/1999/xlink" x="0px" y="0px"
	 width="54.6px" height="60.4px" viewBox="-185.7 129.6 54.6 60.4" enable-background="new -185.7 129.6 54.6 60.4"
	 xml:space="preserve">
<path d="M-131.4,188c-0.1-0.1-7.2-12.4-13.7-21.4c-0.1-0.1-1.5-2.1-5.2-2.7c-0.2-0.1-5.9-1.3-10.2-1.5v-4.2c0-0.3,0.2-1.9-0.8-3.2
	c0.2-0.2,0.4-0.5,0.4-0.8c0.1-0.3,0-0.8-0.4-1.2c0-0.1-4.5-6-6.2-9c-0.2-0.3-5-8-9.5-11.9c-0.1-0.1-2.4-2.5-5-2.5
	c-0.9,0-1.7,0.3-2.4,0.8c0,0-2.7,1.7-0.4,5.7c0,0.1,3,5.5,7.6,10.2l10.6,10.2c0.2,0.2,0.9,1,1.8,1c0.2,0,0.4,0,0.6-0.1c0,0,0,0,0,0
	v7.4h0.3c0,0,0,0.1,0,0.1l-0.2,0.2v0.2c0,0.2,0,4.7,1.2,8.7c0,0.1,0.5,1.8,2.3,2.9c0.1,0,9.3,4.9,25.5,12.4c0,0,1.2,0.4,1.9,0.7
	c0,0,0.4,0.1,0.8,0.1c0.6,0,0.9-0.3,1-0.5C-130.9,188.9-131.3,188.2-131.4,188z"/>
</svg>
