<?xml version="1.0" encoding="utf-8"?>
<!-- Generator: Adobe Illustrator 18.1.1, SVG Export Plug-In . SVG Version: 6.00 Build 0)  -->
<svg version="1.1" id="Layer_1" xmlns="http://www.w3.org/2000/svg" xmlns:xlink="http://www.w3.org/1999/xlink" x="0px" y="0px"
	 width="56.6px" height="74.1px" viewBox="-184.1 119.4 56.6 74.1" enable-background="new -184.1 119.4 56.6 74.1"
	 xml:space="preserve">
<path d="M-130.5,124.2c-0.1-3.9-7.7-3.9-7.5,0.2c-3.2-2.9-6.3,2.5-4.6,5.2c-3.6-1.4-5.3,2.8-3.6,5.5
	c-0.7,0.9-1.4,1.7-2.3,2.4c0-0.1,0.1-0.1,0.1-0.2c0.9-1.1-0.2-2.9-0.6-3.3c2.9-0.8,3.2-7.5-0.4-7.8c2.3-2-0.2-5.4-1.9-6.2
	c-3.5-1.7-8.9,1.3-9.5,4.6c-0.3,2.1,0.5,3.4,1.7,5.1c-1,1.5-2.4,3-1.9,5.3c0.4,1.8,2.2,2.7,3.4,3.7c-0.5,3.2-0.3,7.1-0.6,10.4
	c-1.1-4.7-3.4-8.3-5.8-11.7c2.2-2.1,2.2-8.9-2-8.6c1.1-3.3-2.4-6.1-5.1-4.5c1-5.8-7.3-5.4-8.4-1.4c-2.9,0.2-5.7,2.9-4.5,5.8
	c0.8,2,3.3,2.4,5.7,3.1c-0.5,0.9-1.2,2.2-0.6,3.4c1.8,1.1,4.8,0.1,6.4-0.5c-3.5,3,0,8.2,4.3,5.9c3.6,2.3,6.3,6.2,8.4,9.6
	c-12.7-1.5-19.9,4.3-20.5,15.4c-0.4,7.5,5.4,11.4,10,15c4.6,3.7,9,7.5,11,12.9c3.4-4.7,7.9-9.1,12.7-13.2
	c4.6-3.9,10.4-7.7,10.9-14.9c0.9-11.9-7.3-15.9-19.4-14.9c3.6-4.2,6.7-8.9,12.1-11.3c2.7,2.6,7.3-0.3,5.4-3.8c3,1.3,5.9-0.9,5-4.3
	C-127,133.5-125.5,124.4-130.5,124.2z M-154.7,146.3c-0.4,0.7-0.6,1.5-1.1,2.3c0,0-0.2,0.5-0.4,0.2c0.8-3.7,2.6-6.3,3.7-9.7
	c1,0.5,2.4,0.1,3-0.6C-151,140.7-153.1,143.5-154.7,146.3z"/>
</svg>
