<?xml version="1.0" encoding="utf-8"?><svg width="520" height="82.4" viewBox="0 0 520 82.4" xmlns="http://www.w3.org/2000/svg" xmlns:xlink="http://www.w3.org/1999/xlink"><svg width="129.4" height="82.4" viewBox="-2 -2 129.4 82.4" id="amex"><g><path fill="#0078A9" d="M125.4 74.2c0 2.3-1.9 4.2-4.2 4.2H4.2c-2.3 0-4.2-1.9-4.2-4.2v-70C0 1.9 1.9 0 4.2 0h117.1c2.3 0 4.2 1.9 4.2 4.2v70z"/><g><path fill="#fff" d="M38.9 37.4v-1.3l-.6 1.3h-5.2l-.6-1.4v1.3h-9.7l-1.1-2.7h-1.9l-1.2 2.7h-5v-8.2l3.7-8.3h7.1l1 2.4v-2.3H34l1.9 4 1.9-4h27.3s1.4 0 2.4.6v-.6h6.9v.9s1.2-.9 3.1-.9h12.1l1.1 2.4v-2.4h7.8l1.4 2.4v-2.4h7.4v16.6h-7.6l-1.8-2.9v2.9H88l-1.3-3h-1.9l-1.2 3h-5.7s-2.1 0-3.7-1.2v1.2H62.7v-3.9c0-.6-.4-.5-.4-.5h-.4v4.4h-23z"/><path fill="#fff" d="M33.2 41h15l2.2 2.5 2.2-2.5h11.5s1.1 0 2.1.6V41h10.3c1.3 0 2.4.7 2.4.7V41h13.2v.6s.9-.6 2.2-.6h8.6v.6s1.1-.6 2.2-.6h6.8v15.6s-.9 1-2.7 1h-8.9v-.5s-.8.5-2.1.5H74.5v-4c0-.4-.2-.5-.5-.5h-.3v4.5h-7.4v-4.5s-.8.4-2.2.4h-2.7v4h-9.1L50.2 55 48 57.6H33.2V41z"/><path fill="#0078A9" d="M80.5 43.4H90V46h-6.6v2.2h6.4v2.2h-6.4v2.3H90v2.5h-9.5z"/><path fill="#0078A9" d="M108.2 48c3.5.2 3.8 2 3.8 3.8 0 2.2-1.8 3.4-3.7 3.4h-6.1v-2.5h4.7c.8 0 2 0 2-1.1 0-.5-.2-.9-1.1-1-.4-.1-1.8-.1-2-.1-3.2-.1-3.9-1.7-3.9-3.6 0-2.2 1.5-3.4 3.4-3.4h6.1V46H107c-1 0-2.1-.1-2.1 1 0 .7.5.9 1.2.9.3 0 1.9.1 2.1.1z"/><path fill="#0078A9" d="M97.3 48c3.5.2 3.8 2 3.8 3.8 0 2.2-1.8 3.4-3.7 3.4h-6.1v-2.5H96c.8 0 2 0 2-1.1 0-.5-.2-.9-1.1-1-.4-.1-1.8-.1-2-.1-3.2-.1-3.9-1.7-3.9-3.6 0-2.2 1.5-3.4 3.4-3.4h6.1V46h-4.4c-1 0-2.1-.1-2.1 1 0 .7.5.9 1.2.9.3 0 1.9.1 2.1.1z"/><path fill="#0078A9" d="M63.1 43.5H53l-3.3 3.6-3.2-3.7H35.2v11.7h11l3.5-3.9 3.4 3.9h5.5v-4h3.9c1.5 0 4.2-.1 4.2-4.2-.1-2.8-2.1-3.4-3.6-3.4zm-18.4 9.2H38v-2.3h6.4v-2.2H38V46h7l2.8 3.2-3.1 3.5zm11 1.4l-4.1-4.9 4.1-4.6v9.5zm6.5-5.3h-3.6V46h3.6c1.2 0 1.6.8 1.6 1.3 0 .8-.5 1.5-1.6 1.5z"/><path fill="#0078A9" d="M77.1 49.9c1.6-.8 2-1.8 2-3.2 0-2.5-2-3.1-3.5-3.1h-7.5v11.7H71v-4.1h3.8c1 0 1.4 1 1.4 2l.1 2.2h2.8L79 53c-.1-2.1-.6-3-1.9-3.1zm-2.5-1.2H71V46h3.6c1.2 0 1.6.8 1.6 1.3 0 .8-.4 1.4-1.6 1.4z"/><path fill="#0078A9" d="M69.3 23.2h2.9V35h-2.9z"/><path fill="#0078A9" d="M45.7 23.2h9.4v2.5h-6.6v2.2h6.4v2.3h-6.4v2.3h6.6v2.4h-9.4z"/><path fill="#0078A9" d="M65.8 29.6c1.6-.8 2-1.8 2-3.2 0-2.5-2-3.1-3.5-3.1h-7.5V35h2.9v-4.1h3.8c1 0 1.4 1 1.4 2l.1 2.2h2.8l-.1-2.4c-.1-2.1-.6-3-1.9-3.1zm-2.5-1.2h-3.6v-2.7h3.6c1.2 0 1.6.8 1.6 1.3 0 .8-.5 1.4-1.6 1.4z"/><path fill="#0078A9" d="M39 23.2l-3.5 7.9-3.5-7.9h-4.5v11.3l-5-11.3h-3.8l-5.1 11.7h3l1.1-2.6h5.8l1.1 2.6h5.8v-8.7l3.9 8.7h2.6l3.9-8.6v8.6h2.9V23.2H39zm-20.3 6.6l1.7-4.1 1.8 4.1h-3.5z"/><path fill="#0078A9" d="M101.9 23.2v8.1L97 23.2h-4.3v11l-4.9-11H84l-4 9.1h-1.8c-.7-.1-1.8-.6-1.8-2.7v-.9c0-2.8 1.5-3 3.4-3h1.8v-2.6h-3.8c-1.3 0-4.2 1-4.3 5.8-.1 3.2 1.3 5.9 4.5 5.9h3.8l1.1-2.6h5.8l1.1 2.6h5.7v-8.6l5.2 8.6h3.9V23.2h-2.7zm-17.7 6.6l1.7-4.1 1.8 4.1h-3.5z"/></g></g></svg><svg width="129.4" height="82.4" viewBox="-2 -2 129.4 82.4" id="discover" x="130"><g><path fill="#F2F2F2" d="M125.4 74.2c0 2.3-1.9 4.2-4.2 4.2H4.2c-2.3 0-4.2-1.9-4.2-4.2v-70C0 1.9 1.9 0 4.2 0h117.1c2.3 0 4.2 1.9 4.2 4.2v70z"/><path fill="#F58220" d="M34.5 78.4h86.8c2.3 0 4.2-1.9 4.2-4.2V44.9c-8.4 5.2-39.8 23.4-91 33.5z"/><g><radialGradient id="ba" cx="57.82" cy="-446.881" r="6.181" gradientTransform="translate(6.416 486.083)" gradientUnits="userSpaceOnUse"><stop offset=".006" stop-color="#FFEEE1"/><stop offset=".097" stop-color="#FFEAD8"/><stop offset=".245" stop-color="#FEDDC2"/><stop offset=".433" stop-color="#FCCA9F"/><stop offset=".652" stop-color="#F9AF72"/><stop offset=".895" stop-color="#F68F39"/><stop offset="1" stop-color="#F48220"/></radialGradient><path fill="url(#ba)" d="M64.2 33.1c-3.5 0-6.3 2.7-6.3 6 0 3.5 2.7 6.2 6.3 6.2 3.5 0 6.2-2.7 6.2-6.1.1-3.4-2.6-6.1-6.2-6.1z"/><path fill="#081A23" d="M28.7 33.3h-3.4V45h3.3c1.8 0 3.1-.4 4.2-1.4 1.3-1.1 2.1-2.8 2.1-4.5.1-3.4-2.5-5.8-6.2-5.8zm2.7 8.8c-.7.7-1.7.9-3.1.9h-.6v-7.8h.6c1.5 0 2.4.3 3.1.9.8.7 1.3 1.8 1.3 2.9-.1 1.3-.5 2.4-1.3 3.1z"/><path fill="#081A23" d="M36.1 33.3h2.3V45h-2.3z"/><path fill="#081A23" d="M44 37.8c-1.4-.5-1.8-.8-1.8-1.5s.7-1.3 1.7-1.3c.7 0 1.2.3 1.8.9l1.2-1.6c-1-.9-2.2-1.3-3.5-1.3-2.1 0-3.7 1.4-3.7 3.4 0 1.6.7 2.4 2.9 3.2.9.3 1.4.5 1.6.7.5.3.7.7.7 1.2 0 1-.8 1.7-1.8 1.7-1.1 0-2-.5-2.5-1.6L39.1 43c1.1 1.5 2.3 2.2 4.1 2.2 2.4 0 4-1.6 4-3.9.1-1.7-.6-2.5-3.2-3.5z"/><path fill="#081A23" d="M48.1 39.2c0 3.5 2.7 6.1 6.2 6.1 1 0 1.8-.2 2.9-.7v-2.7c-.9.9-1.7 1.3-2.8 1.3-2.3 0-3.9-1.7-3.9-4 0-2.2 1.7-4 3.8-4 1.1 0 1.9.4 2.9 1.3v-2.7c-1-.5-1.8-.7-2.8-.7-3.6-.1-6.3 2.7-6.3 6.1z"/><path fill="#081A23" d="M75.7 41.2l-3.2-7.9H70l5 12h1.2l5.1-12h-2.5z"/><path fill="#081A23" d="M82.4 45h6.5v-1.9h-4.3v-3.2h4.1v-2h-4.1v-2.6h4.3v-2h-6.5z"/><path fill="#081A23" d="M97.9 36.8c0-2.2-1.5-3.5-4.2-3.5h-3.4V45h2.3v-4.7h.4l3.2 4.7H99l-3.7-4.9c1.7-.3 2.6-1.5 2.6-3.3zm-4.6 1.9h-.7v-3.6h.7c1.4 0 2.2.6 2.2 1.7.1 1.3-.7 1.9-2.2 1.9z"/><path fill="#231F20" d="M99.5 34.2c0-.2-.1-.3-.4-.3h-.3v1h.2v-.4l.3.4h.3l-.3-.4c.1-.1.2-.2.2-.3zm-.4.1V34c.1 0 .2 0 .2.1 0 .2-.1.2-.2.2z"/><path fill="#231F20" d="M99.2 33.5c-.5 0-.9.4-.9.9s.4.9.9.9.9-.4.9-.9-.4-.9-.9-.9zm0 1.6c-.4 0-.7-.3-.7-.7 0-.4.3-.7.7-.7.4 0 .7.3.7.7 0 .4-.3.7-.7.7z"/></g></g></svg><svg width="129.4" height="82.4" viewBox="-2 -2 129.4 82.4" id="mastercard" x="260"><g><path fill="#14477C" d="M125.4 74.2c0 2.3-1.9 4.2-4.2 4.2H4.2c-2.3 0-4.2-1.9-4.2-4.2v-70C0 1.9 1.9 0 4.2 0h117.1c2.3 0 4.2 1.9 4.2 4.2v70z"/><g><path fill-rule="evenodd" clip-rule="evenodd" fill="#FBB230" d="M77.8 61.7h1.1l1.2-.1 1.1-.2 1.1-.2 1.1-.2 1.1-.3 1-.4 1-.4 1-.4 1-.5 1-.6.9-.5.9-.7.8-.6.8-.8.8-.7.8-.8.7-.8.6-.9.7-.8.5-1 .6-.9.5-1 .4-1 .4-1 .4-1 .3-1.1.3-1.1.2-1.1.1-1.1.1-1.2V38l-.1-1.1-.1-1.2-.2-1.1-.3-1-.3-1.1-.4-1.1-.4-1-.4-1-.5-.9-.6-1-.5-.9-.7-.9-.6-.8-.7-.8-.8-.8-.8-.8-.8-.7-.8-.6-.9-.7-.9-.5-1-.6-1-.5-1-.4-1-.4-1-.4-1.1-.3-1.1-.2-1.1-.2-1.1-.2-1.2-.1h-2.3l-1.1.1-1.2.2-1.1.2-1.1.2-1 .3-1.1.4-1 .4-1 .4-.9.5-1 .6-.9.5-.9.7-.8.6-.8.7-.8.8-.8.8-.7.8-.6.8-.7.9-.5.9-.6 1-.5.9-.4 1-.4 1-.4 1.1-.3 1.1-.2 1-.2 1.1-.2 1.2-.1 1.1v2.3l.1 1.2.2 1.1.2 1.1.2 1.1.3 1.1.4 1 .4 1 .4 1 .5 1 .6.9.5 1 .7.8.6.9.7.8.8.8.8.7.8.8.8.6.9.7.9.5 1 .6.9.5 1 .4 1 .4 1.1.4 1 .3 1.1.2 1.1.2 1.2.2 1.1.1h1.2z"/><path fill-rule="evenodd" clip-rule="evenodd" fill="#EB2230" d="M47.7 61.7h1.1l1.2-.1 1.1-.2 1.1-.2 1.1-.2 1-.3 1.1-.4 1-.4 1-.4 1-.5.9-.6.9-.5.9-.7.9-.6.8-.8.7-.7.8-.8.7-.8.7-.9.6-.8.6-1 .5-.9.5-1 .5-1 .4-1 .3-1 .3-1.1.3-1.1.2-1.1.1-1.1.1-1.2V38l-.1-1.1-.1-1.2-.2-1.1-.3-1-.3-1.1-.3-1.1-.4-1-.5-1-.5-.9-.5-1-.6-.9-.6-.9-.7-.8-.7-.8-.8-.8-.7-.8-.8-.7-.9-.6-.9-.7-.9-.5-.9-.6-1-.5-1-.4-1-.4-1.1-.4-1-.3-1.1-.2-1.1-.2-1.1-.2-1.2-.1h-2.3l-1.1.1-1.2.2-1.1.2-1.1.2-1 .3-1.1.4-1 .4-1 .4-1 .5-.9.6-.9.5-.9.7-.9.6-.8.7-.8.8-.7.8-.7.8-.7.8-.6.9-.6.9-.6 1-.5.9-.4 1-.4 1-.4 1.1-.3 1.1-.2 1-.2 1.1-.2 1.2-.1 1.1v2.3l.1 1.2.2 1.1.2 1.1.2 1.1.3 1.1.4 1 .4 1 .4 1 .5 1 .6.9.6 1 .6.8.7.9.7.8.7.8.8.7.8.8.9.6.9.7.9.5.9.6 1 .5 1 .4 1 .4 1.1.4 1 .3 1.1.2 1.1.2 1.2.2 1.1.1h1.2z"/><path fill-rule="evenodd" clip-rule="evenodd" fill="#FBB230" d="M60.1 25.3H72v-1.2H61.1l-1 1.2z"/><path fill-rule="evenodd" clip-rule="evenodd" fill="#FBB230" d="M58.3 28H72v-1.2H59l-.7 1.2z"/><path fill-rule="evenodd" clip-rule="evenodd" fill="#FBB230" d="M57 30.8h15v-1.3H57.5l-.5 1.3z"/><path fill-rule="evenodd" clip-rule="evenodd" fill="#FBB230" d="M56 33.5h16v-1.3H56.4l-.4 1.3z"/><path fill-rule="evenodd" clip-rule="evenodd" fill="#FBB230" d="M56.6 46.6h15.5v-1.2H56.2l.4 1.2z"/><path fill-rule="evenodd" clip-rule="evenodd" fill="#FBB230" d="M57.7 49.3h14.4v-1.2h-15l.6 1.2z"/><path fill-rule="evenodd" clip-rule="evenodd" fill="#FBB230" d="M59.3 52h12.8v-1.2H58.6l.7 1.2z"/><path fill-rule="evenodd" clip-rule="evenodd" fill="#FBB230" d="M61.5 54.7h10.6v-1.2H60.5l1 1.2z"/><path fill-rule="evenodd" clip-rule="evenodd" fill="#FBB230" d="M55.5 36.2H72V35H55.7l-.2 1.2z"/><path fill-rule="evenodd" clip-rule="evenodd" fill="#FBB230" d="M65.6 43.9h6.3v-1.2h-6.1l-.2 1.2z"/><path fill-rule="evenodd" clip-rule="evenodd" fill="#FBB230" d="M66.1 41.2h5.8V40h-5.6l-.2 1.2z"/><path fill-rule="evenodd" clip-rule="evenodd" fill="#FBB230" d="M55.1 40h1.6v1.2h-1.5l-.1-1.2z"/><path fill-rule="evenodd" clip-rule="evenodd" fill="#fff" d="M52 38.5h-.1l-.1-.1h-.6l-.1-.1H50.2l-.2.1h-.5l-.1.1h-.1l-.1.1-.1.1v.1H49v.5l.1.1.1.1.1.1.2.2.2.1h.2l.3.1.2.1.3.1.2.1.2.1.3.2.1.2.2.2.1.3.1.3v1.3l-.1.3-.2.3-.1.2-.2.2-.2.2-.2.2-.2.1-.3.2-.2.1h-.3l-.2.1h-.3l-.3.1h-1.8l-.2-.1h-.7l-.1-.1H46l-.1-.1h-.1l-.2-.1.4-1.6h.2l.2.1H46.7l.1.1H47.4l.2.1H48.9l.2-.1.1-.1.1-.1.1-.1.1-.1V42.4l.1-.2-.1-.2-.1-.1-.2-.1-.3-.2-.2-.1-.3-.1-.3-.1-.3-.1-.3-.2-.3-.2-.2-.2-.2-.3-.1-.4-.1-.4v-.8l.1-.2.1-.3V38l.2-.3.1-.2.2-.2.2-.1.2-.2.2-.1.3-.1.3-.1h.3l.4-.1H51.7l.1.1h.5v.1h.1l-.4 1.7z"/><path fill="none" stroke="#fff" stroke-width=".216" stroke-miterlimit="2.613" d="M52 38.5h-.1l-.1-.1h-.6l-.1-.1H50.2l-.2.1h-.5l-.1.1h-.1l-.1.1-.1.1v.1H49v.5l.1.1.1.1.1.1.2.2.2.1h.2l.3.1.2.1.3.1.2.1.2.1.3.2.1.2.2.2.1.3.1.3v1.3l-.1.3-.2.3-.1.2-.2.2-.2.2-.2.2-.2.1-.3.2-.2.1h-.3l-.2.1h-.3l-.3.1h-1.8l-.2-.1h-.7l-.1-.1H46l-.1-.1h-.1l-.2-.1.4-1.6h.2l.2.1H46.7l.1.1H47.4l.2.1H48.9l.2-.1.1-.1.1-.1.1-.1.1-.1V42.4l.1-.2-.1-.2-.1-.1-.2-.1-.3-.2-.2-.1-.3-.1-.3-.1-.3-.1-.3-.2-.3-.2-.2-.2-.2-.3-.1-.4-.1-.4v-.8l.1-.2.1-.3V38l.2-.3.1-.2.2-.2.2-.1.2-.2.2-.1.3-.1.3-.1h.3l.4-.1H51.7l.1.1h.5v.1h.1l-.4 1.7"/><path fill-rule="evenodd" clip-rule="evenodd" fill="#fff" d="M53.8 34.9h2.1l-.3 1.8h1.3l-.3 1.7h-1.3l-.8 4.2v.2l.1.1v.1l.1.1h.2l.1.1h1l.1-.1h.1l-.3 1.4-.1.1h-.1v.1H55.4l-.1.1h-2l-.2-.1-.2-.1h-.2l-.1-.1-.1-.1-.1-.1V44l-.1-.1v-.5l.1-.2 1.4-8.3z"/><path fill="none" stroke="#fff" stroke-width=".216" stroke-miterlimit="2.613" d="M53.8 34.9h2.1l-.3 1.8h1.3l-.3 1.7h-1.3l-.8 4.2v.2l.1.1v.1l.1.1h.2l.1.1h1l.1-.1h.1l-.3 1.4-.1.1h-.1v.1H55.4l-.1.1h-2l-.2-.1-.2-.1h-.2l-.1-.1-.1-.1-.1-.1V44l-.1-.1v-.5l.1-.2 1.4-8.3"/><path fill="none" stroke="#fff" stroke-width=".216" stroke-miterlimit="2.613" d="M58.6 41.3l-.1.1V41.7l.1.2v.1l.1.1.1.2.1.1.1.1.1.1.1.2.1.1h.2l.1.1.2.1h.5l.2.1h1l.2-.1h.2l.2-.1h.2l.3-.1.2-.1.2-.1.2-.1-.3 1.8-.1.1h-.1l-.2.1h-.1l-.1.1h-.2l-.2.1h-2.6l-.4-.1-.4-.2-.3-.1-.4-.2-.3-.2-.3-.3-.2-.3-.2-.3-.2-.4-.2-.5v-.5l-.1-.5.1-.7v-.2l.1-.3v-.3l.1-.3.1-.3.1-.4.2-.3.2-.3.3-.3.3-.3.3-.3.4-.2.4-.2.5-.1.6-.1h1.2l.3.1h.3l.3.1.3.2.3.2.2.2.3.2.2.3.1.4.1.4.1.4v.6l-.1.5-.1.7v.4h-5.6l.4-1.5h3.3v-.7l-.1-.1v-.1l-.1-.1-.1-.1-.1-.1-.1-.1-.1-.1h-.1l-.1-.1H60.5l-.1-.1-.2.1H60l-.1.1h-.2l-.1.1-.1.1-.1.1-.1.1-.1.1-.1.1v.1l-.1.2-.1.1V39.7l-.3 1.6"/><path fill-rule="evenodd" clip-rule="evenodd" fill="#fff" d="M76.7 37.2l-.1-.1h-.1l-.1-.1h-.2l-.1-.1H76l-.1-.1H75.6l-.2-.1H75l-.2-.1H74.2l-.2.1h-.4l-.2.1-.2.1-.2.1-.3.1-.2.2-.2.2-.1.2-.2.3-.2.3-.2.4-.1.4-.1.5-.1.3v1l.1.3v.2l.1.2.1.2.2.2.1.2.2.2.2.1.3.1.2.1.3.1h.4l.1.1h.7l.2-.1h.2l.2-.1h.2l.2-.1.2-.1.1-.1.2-.2-.4 2.1-.1.1-.1.1h-.1l-.1.1h-.1l-.1.1h-.2l-.2.1h-2.3l-.3-.1-.4-.1-.3-.2-.4-.1-.3-.3-.3-.2-.3-.3-.2-.4-.2-.4-.2-.4-.2-.5-.1-.5v-1.1l.1-.6.1-.3V39l.1-.3.1-.3.1-.3.1-.2.1-.3.1-.2.1-.3.1-.2.1-.2.2-.2.1-.2.2-.2.1-.1.2-.2.1-.2.2-.1.2-.1.2-.1.2-.2.2-.1h.2l.2-.1.3-.1.2-.1h.3l.2-.1h.5l.3-.1h.5l.3.1h.7l.2.1h.2l.1.1h.2l.2.1h.1l.1.1h.2l.1.1-.3 2.1z"/><path fill="none" stroke="#fff" stroke-width=".216" stroke-miterlimit="2.613" d="M76.7 37.2l-.1-.1h-.1l-.1-.1h-.2l-.1-.1H76l-.1-.1H75.6l-.2-.1H75l-.2-.1H74.2l-.2.1h-.4l-.2.1-.2.1-.2.1-.3.1-.2.2-.2.2-.1.2-.2.3-.2.3-.2.4-.1.4-.1.5-.1.3v1l.1.3v.2l.1.2.1.2.2.2.1.2.2.2.2.1.3.1.2.1.3.1h.4l.1.1h.7l.2-.1h.2l.2-.1h.2l.2-.1.2-.1.1-.1.2-.2-.4 2.1-.1.1-.1.1h-.1l-.1.1h-.1l-.1.1h-.2l-.2.1h-2.3l-.3-.1-.4-.1-.3-.2-.4-.1-.3-.3-.3-.2-.3-.3-.2-.4-.2-.4-.2-.4-.2-.5-.1-.5v-1.1l.1-.6.1-.3V39l.1-.3.1-.3.1-.3.1-.2.1-.3.1-.2.1-.3.1-.2.1-.2.2-.2.1-.2.2-.2.1-.1.2-.2.1-.2.2-.1.2-.1.2-.1.2-.2.2-.1h.2l.2-.1.3-.1.2-.1h.3l.2-.1h.5l.3-.1h.5l.3.1h.7l.2.1h.2l.1.1h.2l.2.1h.1l.1.1h.2l.1.1-.3 2.1"/><path fill-rule="evenodd" clip-rule="evenodd" fill="#fff" d="M95.3 44.8h-2.1l.2-.8v-.1l-.1.2-.2.1-.1.1-.1.1-.2.1-.1.1-.1.1-.2.1h-.1l-.2.1h-.4l-.2.1H91.1l-.4-.1-.3-.1-.4-.1-.3-.2-.2-.2-.3-.2-.2-.3-.2-.3-.1-.4-.1-.3-.1-.4-.1-.4V40.8l.1-.3.1-.5.2-.4.1-.4.2-.4.2-.3.2-.3.3-.3.2-.2.3-.3.3-.1.3-.2.2-.1.3-.2h.3l.4-.1h.5l.2.1h.4l.1.1.2.1.2.1h.1l.1.1.1.1.1.1.1.1.1.1.1.1v.1l.1.1.5-3h2.1l-1.8 9.9z"/><path fill="none" stroke="#fff" stroke-width=".216" stroke-miterlimit="2.613" d="M95.3 44.8h-2.1l.2-.8v-.1l-.1.2-.2.1-.1.1-.1.1-.2.1-.1.1-.1.1-.2.1h-.1l-.2.1h-.4l-.2.1H91.1l-.4-.1-.3-.1-.4-.1-.3-.2-.2-.2-.3-.2-.2-.3-.2-.3-.1-.4-.1-.3-.1-.4-.1-.4V40.8l.1-.3.1-.5.2-.4.1-.4.2-.4.2-.3.2-.3.3-.3.2-.2.3-.3.3-.1.3-.2.2-.1.3-.2h.3l.4-.1h.5l.2.1h.4l.1.1.2.1.2.1h.1l.1.1.1.1.1.1.1.1.1.1.1.1v.1l.1.1.5-3h2.1l-1.8 9.9"/><path fill-rule="evenodd" clip-rule="evenodd" fill="#FBB230" d="M91.9 43h.4l.2-.1.2-.1.1-.1.2-.1.1-.1.2-.2.1-.1.1-.2.1-.1.1-.2v-.2l.1-.2.1-.2v-.4l.1-.3v-.2l-.1-.2v-.4l-.1-.1v-.2l-.1-.2-.1-.1-.1-.1-.1-.1-.1-.1-.2-.1H93l-.2-.1-.2.1h-.2l-.1.1h-.2l-.2.1-.1.2-.1.1-.2.1-.1.2-.1.2-.1.1-.1.2-.1.2v.3l-.1.2v.2l-.1.3.1.4v.4l.1.3.2.3.2.3.2.2h.3z"/><path fill-rule="evenodd" clip-rule="evenodd" fill="#fff" d="M45.3 43.2l-.3 1.6h-1.9v-.3l.1-.2v-.4l-.1.2-.1.1-.1.1-.2.1-.2.1-.2.1-.2.1-.2.1h-.2l-.2.1h-.2l-.3.1H40.4l-.2-.1h-.3l-.2-.1-.2-.1-.2-.1-.2-.2-.2-.1-.1-.1-.1-.2-.1-.1v-.2l-.1-.2-.1-.1v-1.3l.1-.3.1-.2.1-.3.2-.2.1-.2.2-.2.2-.2.2-.1.2-.2.3-.1.2-.1.3-.1.2-.1h.7l.1-.1h.9l.1-.1h.2l.2.1h.7v-.1l.1-.1V39l-.1-.1-.1-.2-.1-.1-.2-.1h-.1l-.2-.1h-1.8l-.3.1h-.4l-.2.1h-.2l-.2.1h-.1l-.1.1h-.1l.5-1.8.2-.1h.2l.2-.1h.1l.2-.1H41.6l.2-.1h1.7l.3.1h.4l.3.1.2.1.2.1.2.1.3.2.2.1.1.2.2.2.1.3.1.2V39.2l-.8 4z"/><path fill="none" stroke="#fff" stroke-width=".216" stroke-miterlimit="2.613" d="M45.3 43.2l-.3 1.6h-1.9v-.3l.1-.2v-.4l-.1.2-.1.1-.1.1-.2.1-.2.1-.2.1-.2.1-.2.1h-.2l-.2.1h-.2l-.3.1H40.4l-.2-.1h-.3l-.2-.1-.2-.1-.2-.1-.2-.2-.2-.1-.1-.1-.1-.2-.1-.1v-.2l-.1-.2-.1-.1v-1.3l.1-.3.1-.2.1-.3.2-.2.1-.2.2-.2.2-.2.2-.1.2-.2.3-.1.2-.1.3-.1.2-.1h.7l.1-.1h.9l.1-.1h.2l.2.1h.7v-.1l.1-.1V39l-.1-.1-.1-.2-.1-.1-.2-.1h-.1l-.2-.1h-1.8l-.3.1h-.4l-.2.1h-.2l-.2.1h-.1l-.1.1h-.1l.5-1.8.2-.1h.2l.2-.1h.1l.2-.1H41.6l.2-.1h1.7l.3.1h.4l.3.1.2.1.2.1.2.1.3.2.2.1.1.2.2.2.1.3.1.2V39.2l-.8 4"/><path fill-rule="evenodd" clip-rule="evenodd" fill="#EB2230" d="M43.5 41.2v-.1H43.2l-.1-.1h-.2l-.1.1h-.6l-.1.1h-.2l-.1.1h-.2l-.1.1h-.1l-.1.1-.1.1-.1.1H41l-.1.1v.1l-.1.1v.2l-.1.1v.2l.1.2.1.2.1.1.1.1h.1l.1.1h.4l.2-.1H42.2l.2-.1.1-.1h.2l.1-.1.1-.1.1-.1v-.1l.1-.1h.1v-.2l.1-.1v-.2l.1-.3v-.2l.1-.2z"/><path fill-rule="evenodd" clip-rule="evenodd" fill="#fff" d="M29.3 44.8h-2l1.7-9.9h3.6l.3 5.9 2.5-5.9h3.7l-1.7 9.9h-2.1l1.3-7.4h-.1l-3 7.4h-2.4v-1.1l-.1-1.2-.1-1.3-.1-1.4v-1.2l-.1-.8v-.4h-.1l-1.3 7.4z"/><path fill="none" stroke="#fff" stroke-width=".216" stroke-miterlimit="2.613" d="M29.3 44.8h-2l1.7-9.9h3.6l.3 5.9 2.5-5.9h3.7l-1.7 9.9h-2.1l1.3-7.4h-.1l-3 7.4h-2.4v-1.1l-.1-1.2-.1-1.3-.1-1.4v-1.2l-.1-.8v-.4h-.1l-1.3 7.4"/><path fill-rule="evenodd" clip-rule="evenodd" fill="#fff" d="M83 43.2l-.3 1.6h-1.9V44l-.1.1-.1.1-.2.1-.1.1-.2.1-.2.1-.1.1-.2.1h-.2l-.3.1h-.2l-.2.1H78.1l-.2-.1h-.3l-.2-.1-.2-.1-.2-.1-.2-.2-.2-.1-.1-.1-.1-.2-.1-.1v-.2l-.1-.2v-.1l-.1-.2v-.8l.1-.3v-.3l.1-.2.1-.3.2-.2.1-.2.2-.2.2-.2.2-.1.2-.2.3-.1.2-.1.3-.1.2-.1h.6l.2-.1H80.1l.1-.1H80.5l.2.1h.7v-.2l.1-.2v-.1l-.1-.2v-.1l-.1-.2-.1-.1-.2-.1h-.1l-.2-.1h-1.8l-.3.1h-.4l-.2.1h-.2l-.2.1h-.1l-.1.1h-.1l.5-1.8.2-.1h.2l.2-.1h.1l.2-.1H79.3l.2-.1h1.7l.2.1h.5l.2.1.3.1.2.1.2.1.2.2.2.1.2.2.2.2.1.3v.2l.1.3v.6l-.8 4z"/><path fill-rule="evenodd" clip-rule="evenodd" fill="#fff" d="M82.7 44.9l.3-1.7h-.1l-.3 1.6h.1v.1z"/><path fill-rule="evenodd" clip-rule="evenodd" fill="#fff" d="M80.7 44.8l.1.1h1.9v-.1h-2v.1h.1l-.1-.1z"/><path fill-rule="evenodd" clip-rule="evenodd" fill="#fff" d="M80.8 44v-.1l-.1.2v.7h.1V43.9v.1z"/><path fill-rule="evenodd" clip-rule="evenodd" fill="#fff" d="M77.9 45h1l.3-.1h.2l.2-.1.2-.1.2-.1h.1l.2-.2.2-.1.1-.1.1-.1.1-.1v-.1l-.1.2-.2.1-.1.1-.1.1-.2.1-.2.1h-.2l-.1.1-.2.1h-.3l-.2.1h-1v.1z"/><path fill-rule="evenodd" clip-rule="evenodd" fill="#fff" d="M76 42.7v.1l.1.2v.4l.1.1v.2l.1.2.1.1.1.2.1.1.2.2.1.1.2.1.2.1.3.1.3.1v-.1l-.3-.1-.2-.1-.2-.1-.2-.1-.2-.1-.1-.1-.1-.2-.1-.1-.1-.2-.1-.1-.1-.2V43l-.1-.2v-.1H76z"/><path fill-rule="evenodd" clip-rule="evenodd" fill="#fff" d="M78.8 39.8h-.3l-.3.1-.2.1-.3.1-.2.1-.2.1-.2.2-.2.2-.2.2-.2.2-.1.2-.1.3-.1.2-.1.3v.3l-.1.3h.1l.1-.3v-.3l.1-.3.1-.2.1-.3.1-.2.2-.2.1-.2.2-.1.2-.2.3-.1.2-.2.2-.1h.3l.2-.1.3-.1z"/><path fill-rule="evenodd" clip-rule="evenodd" fill="#fff" d="M80.3 39.6h-.7l-.1.1h-.7v.1h.7l.1-.1h.7v-.1z"/><path fill-rule="evenodd" clip-rule="evenodd" fill="#fff" d="M81.3 39.7l.1-.1H80.3v.1H81.4h-.1z"/><path fill-rule="evenodd" clip-rule="evenodd" fill="#fff" d="M81.4 39.2v.4l-.1.1h.1l.1-.1v-.4h-.1z"/><path fill-rule="evenodd" clip-rule="evenodd" fill="#fff" d="M80.5 38.4l.2.1h.2l.1.1.1.1.1.1.1.1.1.1v.2h.1V39l-.1-.1-.1-.2-.1-.1-.1-.1-.2-.1h-.2l-.2-.1v.1z"/><path fill-rule="evenodd" clip-rule="evenodd" fill="#fff" d="M77.3 38.8v.1l.1-.1h.1l.1-.1h.2l.2-.1h.4l.2-.1h.5l.3-.1H80.5l-.2-.1h-.7l-.2.1h-.8l-.2.1H78l-.2.1h-.2l-.1.1h-.1l-.1.1h.1-.1z"/><path fill-rule="evenodd" clip-rule="evenodd" fill="#fff" d="M77.8 36.9v.1l-.5 1.8h.1l.5-1.8-.1-.1v.1-.1z"/><path fill-rule="evenodd" clip-rule="evenodd" fill="#fff" d="M81.2 36.6h-2.1l-.2.1h-.4l-.2.1h-.1l-.2.1h-.2l.1.1h.1l.2-.1.2-.1H78.7l.2-.1h2.3v-.1z"/><path fill-rule="evenodd" clip-rule="evenodd" fill="#fff" d="M83.8 39.2V38.3l-.1-.3-.1-.2-.2-.2-.1-.2-.2-.2-.3-.1-.2-.1-.2-.1-.3-.1-.2-.1-.2-.1h-.5v.1h.4l.3.1.2.1h.2l.3.2.2.1.2.1.2.2.2.2.1.2.1.2.1.2.1.3v.3l-.1.2.1.1z"/><path fill-rule="evenodd" clip-rule="evenodd" fill="#fff" d="M83 43.2l.8-4-.1-.1-.8 4.1h.1z"/><path fill-rule="evenodd" clip-rule="evenodd" fill="#FBB230" d="M81.1 41.2v-.1H81l-.1-.1h-.4l-.1.1h-.5l-.1.1H79.5l-.1.1h-.1l-.1.1h-.1l-.1.1h-.1l-.1.1-.1.1-.1.1v.1l-.1.1V42.3l-.1.2.1.2v.2l.1.1.2.1h.1l.1.1h.4l.2-.1h.2l.2-.1h.1l.2-.1.1-.1.1-.1h.1l.1-.1.1-.1.1-.1v-.1l.1-.1v-.4l.1-.2v-.4z"/><path fill-rule="evenodd" clip-rule="evenodd" fill="#fff" d="M96.8 43.8v-.4l.1-.2.2-.1.1-.1.2-.1.2-.1h.4l.2.1.2.1.2.1.1.1.1.2.1.2v.2h-.2v-.1l-.1-.2-.1-.1-.1-.2-.1-.1-.1-.1h-.7l-.2.1-.1.1-.1.2-.1.1V43.8h-.2z"/><path fill-rule="evenodd" clip-rule="evenodd" fill="#fff" d="M97.4 43.8v-.4H98.2v.4h-.3.1l.1-.1v-.1l-.1-.1h-.4v.3h-.2z"/><path fill-rule="evenodd" clip-rule="evenodd" fill="#fff" d="M96.8 43.8v.5l.1.2.2.1.1.1.2.1.2.1h.4l.2-.1.2-.1.2-.1.1-.1.1-.2.1-.2V43.8h-.2v.2l-.1.2-.1.1-.1.2-.1.1-.1.1h-.7l-.2-.1-.1-.1-.1-.2-.1-.1v-.4h-.2z"/><path fill-rule="evenodd" clip-rule="evenodd" fill="#fff" d="M97.4 43.8v.5h.2v-.4h.2l.3.4h.1l-.2-.4h.1l.1-.1h-.8z"/><path fill="none" stroke="#fff" stroke-width=".216" stroke-miterlimit="2.613" d="M96.8 43.9v-.2l.1-.2.1-.2.1-.2.2-.1.2-.1.2-.1h.4l.2.1.2.1.2.1.1.2.1.2.1.2v.4l-.1.2-.1.2-.1.2-.2.1-.2.1h-.7l-.2-.1-.2-.1-.2-.1-.1-.2-.1-.2-.1-.2.1-.1m.8.4h-.2v-.9H98.2v.4H98l.2.4H98l-.2-.4h-.2v.5m.2-.5h.1v-.1h-.2v.3h.1m0 .7h.2l.2-.1.1-.1.1-.1.1-.1.1-.1v-.8l-.1-.2-.1-.1-.1-.1H97.5l-.1.1-.1.1-.1.1-.2.2v.8l.1.1.1.1.1.1.1.1.2.1.2-.1"/><path fill-rule="evenodd" clip-rule="evenodd" fill="#fff" d="M83.5 44.8h2.2l.7-4.3.1-.1v-.2l.1-.2v-.1l.1-.2.1-.2.1-.1.1-.2.1-.1.2-.1.2-.1.2-.1.2-.1.2-.1H88.9l.3-2-.2.1h-.4l-.2.1h-.1l-.2.1-.1.1-.2.1-.1.1-.1.1-.2.1-.1.1-.1.2-.1.1-.1.1-.1.2.2-1.4H85l-1.5 8.1z"/><path fill="none" stroke="#fff" stroke-width=".216" stroke-miterlimit="2.613" d="M83.5 44.8h2.2l.7-4.3.1-.1v-.2l.1-.2v-.1l.1-.2.1-.2.1-.1.1-.2.1-.1.2-.1.2-.1.2-.1.2-.1.2-.1H88.9l.3-2-.2.1h-.4l-.2.1h-.1l-.2.1-.1.1-.2.1-.1.1-.1.1-.2.1-.1.1-.1.2-.1.1-.1.1-.1.2.2-1.4H85l-1.5 8.1"/><path fill-rule="evenodd" clip-rule="evenodd" fill="#fff" d="M63.4 44.8h2.2l.7-4.3.1-.1V40l.1-.1.1-.2v-.1l.1-.1.1-.2.2-.1.1-.1.2-.1.1-.1h.3l.2-.1h.2l.3-.1h.1v.1h.2V38.5l.1-.1v-.2l.1-.3v-.2l.1-.2.1-.1.1-.2v-.1l.1-.1.1-.2.1-.1h-.2l-.1-.1h-.1l-.2.1h-.4l-.2.1h-.2l-.1.1-.2.1-.1.1-.1.1-.2.1-.1.1-.1.1-.1.1-.1.2-.1.1-.1.2.2-1.4h-2.1l-1.5 8.1z"/><path fill="none" stroke="#fff" stroke-width=".216" stroke-miterlimit="2.613" d="M63.4 44.8h2.2l.7-4.3.1-.1V40l.1-.1.1-.2v-.1l.1-.1.1-.2.2-.1.1-.1.2-.1.1-.1h.3l.2-.1h.2l.3-.1h.1v.1h.2V38.5l.1-.1v-.2l.1-.3v-.2l.1-.2.1-.1.1-.2v-.1l.1-.1.1-.2.1-.1h-.2l-.1-.1h-.1l-.2.1h-.4l-.2.1h-.2l-.1.1-.2.1-.1.1-.1.1-.2.1-.1.1-.1.1-.1.1-.1.2-.1.1-.1.2.2-1.4h-2.1l-1.5 8.1"/><path fill-rule="evenodd" clip-rule="evenodd" fill="#FBB230" d="M96.8 52.8v-.2l.1-.2.2-.1.1-.1.2-.1.2-.1h.4l.2.1.2.1.2.1.1.1.1.2.1.2h-.2l-.1-.1-.1-.2-.1-.1-.1-.1-.1-.1H98l-.2-.1-.1.1h-.2l-.2.1-.1.1-.1.1-.1.2v.1h-.2z"/><path fill-rule="evenodd" clip-rule="evenodd" fill="#FBB230" d="M97.4 52.8v-.2H98.2v.2h-.1v-.1h-.5v.1h-.2z"/><path fill-rule="evenodd" clip-rule="evenodd" fill="#FBB230" d="M96.8 53v-.2h.2v.2h-.2z"/><path fill-rule="evenodd" clip-rule="evenodd" fill="#FBB230" d="M97.4 53v-.2h.2v.2H97.9l.1-.1h.1v-.1h.1v.2h-.8z"/><path fill-rule="evenodd" clip-rule="evenodd" fill="#FBB230" d="M98.7 53v-.2h.2v.2h-.2z"/><path fill-rule="evenodd" clip-rule="evenodd" fill="#FBB230" d="M96.8 53v.4l.1.2.2.2.1.1.2.1.2.1h.4l.2-.1.2-.1.2-.1.1-.2.1-.2.1-.2V53h-.2v.2l-.1.2-.1.1-.1.1-.1.2h-.1l-.2.1H97.7l-.2-.1h-.2l-.1-.2-.1-.1-.1-.1V53h-.2z"/><path fill-rule="evenodd" clip-rule="evenodd" fill="#FBB230" d="M97.4 53v.4h.2v-.3h.2l.3.3h.1l-.2-.3.1-.1h.1-.8z"/><path fill-rule="evenodd" clip-rule="evenodd" fill="#fff" d="M63.7 39.1l-.1-.5-.1-.4-.2-.3-.2-.3-.2-.3-.2-.2-.3-.1-.3-.1-.3-.1-.3-.1-.3-.1H60l-.5.1-.5.1-.5.2-.4.2-.3.3-.3.3-.2.3-.3.3-.2.3-.1.3-.1.3-.1.3v2.1l.1.5.1.4.2.4.2.3.3.3.3.3.3.2.3.2.4.1.4.1.4.1.4.1H62.8l.1-.1.1-.1.3-1.9-.3.1-.2.1-.2.1-.3.1h-2.7l-.2-.1-.1-.1-.1-.1-.1-.1-.1-.1-.1-.1-.1-.1-.1-.1-.1-.2-.1-.1v-.4h4.9V41l.1-.6.1-.6.1-.7zm-2.1.7h-2.8v-.5l.1-.2.1-.1.1-.1.1-.1.1-.1.1-.1.1-.1.1-.1.1-.1.1-.1H60.6l.1.1.1.1.1.1.1.1.1.1.1.1.1.1.1.1V39.6l.2.2z"/></g></g></svg><svg width="129.4" height="82.4" viewBox="-2 -2 129.4 82.4" id="visa" x="390"><g><path fill="#3A58A8" d="M125.4 74.2c0 2.3-1.9 4.2-4.2 4.2H4.2c-2.3 0-4.2-1.9-4.2-4.2v-70C0 1.9 1.9 0 4.2 0h117.1c2.3 0 4.2 1.9 4.2 4.2v70z"/><g fill="#fff"><path d="M57.7 51h-6.1l3.8-23.6h6.2z"/><path d="M46.4 27.4l-5.8 16.2-.7-3.5-2.1-10.6s-.2-2.1-2.9-2.1h-9.7l-.1.4s3 .6 6.4 2.7L36.9 51h6.4L53 27.4h-6.6z"/><path d="M94.6 51h5.6l-4.9-23.5h-4.9c-2.3 0-2.8 1.8-2.8 1.8L78.5 51h6.4l1.3-3.5H94l.6 3.5zm-6.7-8.4l3.2-8.8 1.8 8.8h-5z"/><path d="M78.9 33.1l.9-5.1s-2.7-1-5.5-1c-3 0-10.3 1.3-10.3 7.8 0 6.1 8.5 6.2 8.5 9.3 0 3.2-7.6 2.6-10.1.6l-.9 5.3s2.7 1.3 6.9 1.3 10.5-2.2 10.5-8.1c0-6.1-8.6-6.7-8.6-9.3.1-2.6 6-2.2 8.6-.8z"/></g><path fill="#FAA634" d="M39.9 40.1l-2.1-10.6s-.2-2.1-2.9-2.1h-9.7l-.1.4s4.6 1 9.1 4.6c4.3 3.4 5.7 7.7 5.7 7.7z"/></g></svg></svg>