<?xml version="1.0" encoding="utf-8"?>
<!-- Generator: Adobe Illustrator 18.1.1, SVG Export Plug-In . SVG Version: 6.00 Build 0)  -->
<svg version="1.1" id="Layer_1" xmlns="http://www.w3.org/2000/svg" xmlns:xlink="http://www.w3.org/1999/xlink" x="0px" y="0px"
	 width="66.4px" height="58px" viewBox="38.1 -14.7 66.4 58" enable-background="new 38.1 -14.7 66.4 58" xml:space="preserve">
<path d="M78-9.2l26.6,26.8L84.9,36.4l-26.4-26L78-9.2z M45.3,17.6l1.6,5.5l20.8-1.8l-7.9-7.7L45.3,17.6z M43.1,30.9l2.6-7.9
	l-1.4-5.1l-6.2-5L43.1,30.9z M42.2,34.4c0,0-0.6,1.9-1.3,3.1c0,0-2.9,6.1,2,5.8c3.9-0.3,1.3-5,1.3-5S42.7,35.2,42.2,34.4z M99.3,9.2
	c-0.8-14.1-3.5-22-8.5-23.5c-0.6-0.2-1.3-0.3-2-0.3c-4.7,0-8.7,4.8-8.9,5l-0.2,0.3l2.7,2.6l0.3-0.3c1-1.2,3.9-3.8,6.2-3.8
	c0.3,0,0.7,0.1,1,0.2c1.7,0.7,4.6,3.8,5.7,17l0,0.1l3.9,3.7L99.3,9.2z"/>
</svg>
